<?xml version="1.0" encoding="UTF-8" standalone="no"?>
<!-- Created with Inkscape (http://www.inkscape.org/) -->

<svg
   width="88"
   height="31"
   viewBox="0 0 8.8 3.1"
   version="1.1"
   id="svg135"
   xml:space="preserve"
   xmlns="http://www.w3.org/2000/svg"
   xmlns:svg="http://www.w3.org/2000/svg"
   xmlns:rdf="http://www.w3.org/1999/02/22-rdf-syntax-ns#"
   xmlns:cc="http://creativecommons.org/ns#"><defs
     id="defs132" /><g
     id="layer1"><rect
       style="fill:#0f000a;fill-opacity:1;stroke:none;stroke-width:7.85304;stroke-dasharray:none"
       id="background"
       width="246.60477"
       height="86.872131"
       x="-2.8023441"
       y="-2.802325"
       transform="matrix(0.03568463,0,0,0.03568463,0.10000068,0.1)" /><g
       style="fill:none;stroke-width:2.80233;stroke-dasharray:none"
       id="grid"
       transform="matrix(0.03568463,0,0,0.03568463,0.10000068,0.1)"><line
         y1="40.5"
         x2="241"
         y2="40.5"
         stroke="#29114c"
         id="line824"
         x1="0"
         style="stroke-width:2.80233;stroke-dasharray:none" /><line
         x1="40.500011"
         y1="80.747871"
         x2="40.500011"
         y2="3.5252921e-07"
         stroke="#29114c"
         id="line838"
         style="stroke-width:2.80233;stroke-dasharray:none" /><line
         x1="80.499901"
         y1="80.747871"
         x2="80.499901"
         y2="3.5252921e-07"
         stroke="#29114c"
         id="line840"
         style="stroke-width:2.80233;stroke-dasharray:none" /><line
         x1="120.49997"
         y1="80.747871"
         x2="120.49997"
         y2="3.5252921e-07"
         stroke="#29114c"
         id="line842"
         style="stroke-width:2.80233;stroke-dasharray:none" /><line
         x1="160.49988"
         y1="80.747871"
         x2="160.49988"
         y2="3.5252921e-07"
         stroke="#29114c"
         id="line844"
         style="stroke-width:2.80233;stroke-dasharray:none" /><line
         x1="200.50011"
         y1="80.747871"
         x2="200.50011"
         y2="3.5252921e-07"
         stroke="#29114c"
         id="line846"
         style="stroke-width:2.80233;stroke-dasharray:none" /><rect
         style="fill:none;stroke:#29114c;stroke-width:2.80233;stroke-dasharray:none;stroke-opacity:1"
         id="rect3434"
         width="238.19778"
         height="78.465157"
         x="1.4011471"
         y="1.4011624" /></g><path
       d="m 0.93844212,0.4105678 9.44e-4,0.001806 0.00128,0.001587 0.001565,0.001308 0.001788,9.77e-4 0.001946,6.09e-4 0.002027,2.18e-4 0.002031,-1.82e-4 0.001956,-5.74e-4 0.001806,-9.45e-4 0.001587,-0.001279 0.001307,-0.001564 9.78e-4,-0.001789 6.09e-4,-0.001945 2.19e-4,-0.002027 -1.82e-4,-0.00203 -5.75e-4,-0.001956 -0.0188716,-0.0550595 0.0129378,-0.0560352 0.0396945,-0.0426854 0.0557189,-0.01684 0.093451,-0.001429 0.2426432,0.00219 0.044509,4.61e-4 0.044492,6.16e-4 0.044485,7.75e-4 0.047779,0.001008 0.1214843,0.00211 0.1184418,7.48e-4 0.1186001,-5.55e-4 0.1187545,-0.001865 0.048039,-9.31e-4 0.04799,-7.47e-4 0.047997,-5.7e-4 0.048018,-3.88e-4 0.1524522,-0.001052 0.042711,-2.63e-4 0.042713,-1.42e-4 0.042726,-2.07e-5 0.042751,9.906e-5 0.12695,3.91e-4 0.061218,3.96e-4 0.061216,8.91e-4 0.061237,0.001386 0.061304,0.001882 0.1067545,0.002827 0.1073119,0.001092 0.1077571,-6.38e-4 0.1082174,-0.002344 0.065105,-0.001921 0.029868,-8.38e-4 0.029889,-7.47e-4 0.029919,-6.53e-4 0.029955,-5.61e-4 0.2116454,-0.003509 0.036764,-5.17e-4 0.036815,-4.03e-4 0.036868,-2.84e-4 0.03691,-1.65e-4 0.2505291,2.17e-4 0.01275,1.29e-4 0.012745,2.53e-4 0.012743,3.77e-4 0.012746,5.01e-4 0.1458779,0.006923 0.087025,0.009618 0.08489,0.0197687 0.08188,0.0296804 0.077779,0.0392022 0.064712,0.0423393 0.059937,0.0489862 0.054481,0.0550867 0.048603,0.0608031 0.052052,0.0728294 0.030877,0.0394352 0.034803,0.0371647 0.038041,0.0341096 0.040851,0.0306841 0.046954,0.0322722 0.077054,0.0423134 0.083547,0.0250244 0.085196,0.005543 0.082782,-0.0143125 0.058888,-0.0236863 0.05326,-0.0337829 0.046431,-0.0428553 0.038301,-0.0505927 0.059734,-0.0954429 0.022847,-0.0325897 0.025804,-0.0297178 0.028659,-0.0267975 0.03145,-0.0238016 0.047229,-0.0320317 0.065411,-0.0328297 0.071457,-0.0149187 0.073719,0.003584 0.071583,0.0219463 0.051043,0.0288537 0.045218,0.0382235 0.037583,0.0461472 0.028777,0.0528292 0.030896,0.0719225 0.020279,0.0557162 0.013846,0.057348 0.00732,0.0584924 6.9e-4,0.0591514 -0.00413,0.090562 -0.00521,0.0640219 -0.00965,0.063299 -0.014071,0.062433 -0.018479,0.061423 -0.021788,0.064055 -0.025939,0.068869 -0.030234,0.066901 -0.034473,0.064801 -0.038659,0.062567 -0.025274,0.038091 -0.043815,0.06027 -0.048569,0.056025 -0.053096,0.051535 -0.057173,0.046617 -0.076946,0.051087 -0.081759,0.042207 -0.085616,0.032845 -0.091196,0.02365 -0.070614,0.011417 -0.068493,0.00524 -0.068535,-4.4e-4 -0.068333,-0.00616 -0.1340949,-0.017338 -0.032659,-0.00278 -0.033382,-2e-4 -0.033591,0.00245 -0.033657,0.0051 -0.1374708,0.026915 -0.058861,0.019596 -0.055751,0.034224 -0.047559,0.045864 -0.035886,0.054296 -0.023282,0.068911 -0.0015,0.070515 0.020534,0.066057 0.040389,0.05577 0.025345,0.025074 0.039393,0.031948 0.045898,0.024568 0.05007,0.015603 0.052531,0.0061 0.2250686,0.00479 0.011725,1.8e-4 0.011814,2.96e-5 0.011817,-1.3e-4 0.011816,-3e-4 0.2097377,-0.00649 0.05839,-0.00137 0.05822,-7.1e-4 0.058079,-4.44e-5 0.057971,6.1e-4 0.1511306,0.00267 0.039149,3.7e-4 0.039262,-4e-4 0.039243,-0.00116 0.039211,-0.00193 0.1288047,-0.00747 0.067783,-0.00615 0.067638,-0.010731 0.066838,-0.015247 0.065745,-0.019694 0.01774,-0.00596 0.084401,-0.033037 0.08144,-0.04132 0.077246,-0.049075 0.075511,-0.059096 0.059033,-0.054936 0.051454,-0.05682 0.046648,-0.060991 0.041541,-0.064748 0.00554,-0.00946 0.041058,-0.079189 0.033218,-0.083549 0.024759,-0.086586 0.016066,-0.088723 0.00697,-0.082563 -5.2e-4,-0.08283 L 7.090211,1.4321109 7.074873,1.3507979 7.066213,1.3141339 7.047099,1.2437249 7.023365,1.1744679 6.995199,1.1070149 6.96274,1.0416619 6.871999,0.87349738 6.864239,0.85867118 6.858599,0.84746628 6.751344,0.6310994 6.737568,0.5962383 6.730088,0.560162 6.728968,0.5236354 6.734168,0.4882657 6.760113,0.4276796 6.804022,0.3805171 6.861216,0.3514648 l 0.065095,-0.007937 0.1619743,0.007989 0.00996,3.06e-4 0.00753,7.836e-5 0.2708916,-2.06e-4 0.025862,2.24e-4 0.025819,7.47e-4 0.02582,0.00127 0.025865,0.001796 0.1912382,0.0151294 0.042279,0.00561 0.0414,0.01004 0.040342,0.0143973 0.038545,0.0184604 0.077381,0.0540358 0.063962,0.0699224 0.047433,0.0824221 0.028535,0.0912542 0.018003,0.0924468 0.00343,0.0191668 0.00282,0.019172 0.00223,0.0192392 0.00164,0.0193658 0.013993,0.20603554 0.00303,0.049658 0.0024,0.049702 0.00177,0.04977 0.00113,0.04986 0.00285,0.1812212 1.2e-4,0.033351 -6.5e-4,0.033283 -0.00143,0.033257 -0.00221,0.033272 -0.012613,0.1599203 -0.00735,0.057669 -0.012758,0.056285 -0.018097,0.054604 -0.023185,0.052216 -0.051706,0.083789 -0.064815,0.073048 -0.076143,0.060295 -0.085637,0.045952 -0.021929,0.00937 -0.046096,0.017512 -0.047137,0.013666 -0.048084,0.0098 -0.048942,0.0059 -0.044045,0.00351 -0.093168,0.012416 -0.092004,0.022323 -0.089417,0.032008 -0.085979,0.041402 -0.017993,0.00984 -0.054724,0.032273 -0.053119,0.035926 -0.051042,0.039309 -0.048787,0.04255 -0.056391,0.052298 -0.053331,0.045763 -0.056443,0.041283 -0.059373,0.03668 -0.061874,0.031818 -0.089269,0.035767 -0.092351,0.025727 -0.094424,0.015414 -0.095672,0.00494 -0.1497181,-4.2e-4 -0.3189419,0.00138 -0.014605,8.87e-5 -0.014592,5.92e-5 -0.014598,5.91e-5 -0.014608,4.44e-5 -0.2115994,6.8e-4 -0.055034,5.91e-5 -0.055106,-2.5e-4 -0.055197,-5.7e-4 -0.055309,-8.9e-4 -0.040602,-7.7e-4 -0.1018032,-0.00129 -0.102387,-5.92e-5 -0.1028953,0.00111 -0.1033725,0.00219 -0.09124,0.00223 -0.031896,5.6e-4 -0.031901,2.2e-4 -0.031921,-1.2e-4 -0.03194,-4.6e-4 -0.1993594,-0.00486 -0.049827,-0.0026 -0.049547,-0.00488 -0.049257,-0.00716 -0.04898,-0.00944 -0.026287,-0.00572 -0.1072608,-0.029933 -0.1028767,-0.041904 -0.097485,-0.053411 -0.090976,-0.064301 -0.049595,-0.042238 -0.046825,-0.045562 -0.043762,-0.048612 -0.040608,-0.051562 -0.1177446,-0.161834 -0.00999,-0.013817 -0.0101,-0.013816 -0.010169,-0.013755 -0.010216,-0.013667 -0.1884577,-0.2555527 -0.00994,-0.013976 -0.00735,-0.01056 -0.112759,-0.1649127 -0.034137,-0.056991 -0.027477,-0.060464 -0.020621,-0.063394 -0.013471,-0.065388 -0.00665,-0.095572 0.0083,-0.095579 0.022979,-0.093257 0.037159,-0.088936 0.069503,-0.1350207 0.005,-0.010295 0.042293,-0.0918089 0.021358,-0.0778419 -0.00603,-0.0799412 -0.00114,-0.003724 -0.032606,-0.0661808 -0.00252,-0.003133 -0.054532,-0.0475029 -0.049062,-0.0201913 -0.05266,-0.006387 -0.053401,0.007362 -0.050777,0.020617 -0.079921,0.0449172 -0.047572,0.0314648 -0.04354,0.038607 -0.037859,0.0445688 -0.031332,0.0495723 -0.1088554,0.2042372 -0.00433,0.00805 -0.00328,0.00601 -0.020846,0.037986 -0.075547,0.1280651 -0.083277,0.1225314 -0.0908,0.1163988 -0.098121,0.1097512 -0.017324,0.018096 -0.0098,0.010109 -0.00989,0.00996 -0.010008,0.00982 -0.010144,0.00971 -0.1121232,0.1059231 -0.055973,0.060456 -0.048169,0.068437 -0.03883,0.074598 -0.028694,0.079322 -0.00814,0.028306 -0.012255,0.053478 -0.00643,0.055068 -3.4e-4,0.055345 0.00578,0.054887 0.013656,0.084003 0.00331,0.069591 -0.012217,0.068273 -0.027036,0.063704 -0.040436,0.055656 -0.040409,0.036457 -0.046178,0.027972 -0.050176,0.018393 -0.052862,0.00823 -0.086576,0.00477 -0.061822,-0.00427 -0.05808,-0.019206 -0.051716,-0.033111 -0.042437,-0.045153 -0.031261,-0.055789 -0.017385,-0.062427 -0.00255,-0.065467 0.012479,-0.065376 0.046215,-0.1489369 0.00531,-0.016284 0.00574,-0.016053 0.00618,-0.015882 0.00665,-0.01577 0.073344,-0.167561 0.027519,-0.064417 0.026384,-0.06494 0.025209,-0.065342 0.024029,-0.065714 0.062415,-0.1751515 0.00517,-0.014687 0.00505,-0.014783 0.00491,-0.014825 0.00477,-0.014863 0.059302,-0.1870195 0.021617,-0.058068 0.02696,-0.055477 0.0321,-0.052574 0.037049,-0.049357 0.023094,-0.027862 0.058246,-0.059894 0.066153,-0.0491773 0.072487,-0.0374374 0.077197,-0.0248134 0.089031,-0.0205773 0.029664,-0.009294 0.028961,-0.0140817 0.026786,-0.0183771 0.023989,-0.0222295 0.037161,-0.039981 0.038791,-0.0646886 0.00133,-0.004349 0.00806,-0.0715859 -6.8e-4,-0.004595 -0.022946,-0.06577 -0.00272,-0.003936 -0.049301,-0.0467212 -0.023745,-0.0114837 -0.023981,-0.006738 -0.024924,-0.002823 -0.025271,0.00115 -0.2838887,0.036299 -0.2106074,0.02766 -0.060925,0.0108019 -0.060538,0.0164709 -0.059175,0.0219552 -0.057327,0.0272645 -0.014302,0.007592 -0.082093,0.0515056 -0.075112,0.0635671 -0.065741,0.0739144 -0.054881,0.0826637 -0.031874,0.0634593 -0.025222,0.0660974 -0.01839,0.068192 -0.011328,0.069521 -0.013681,0.1242059 -0.0038,0.040723 -0.0025,0.040967 -0.00117,0.040995 1.5e-4,0.04098 0.00442,0.2158292 -3.5e-4,0.025779 -0.00208,0.025614 -0.00378,0.025508 -0.00551,0.025455 L 0.9932089,1.9564732 0.9720102,2.0061282 0.9373,2.0458122 0.892651,2.0719252 0.8431636,2.0815452 0.7882199,2.0714272 0.7419183,2.0405962 0.7107428,1.9933932 0.6988778,1.9355572 0.6954518,1.7677893 l -1.626e-5,-0.012258 4.14e-4,-0.012181 8.4e-4,-0.01218 0.001267,-0.012253 0.0210256,-0.1748856 0.008055,-0.074793 0.006127,-0.074883 0.00419,-0.074769 0.002255,-0.074595 0.002987,-0.1670866 4.45e-4,-0.015339 7.53e-4,-0.01529 0.001056,-0.015284 0.001364,-0.015322 0.0209733,-0.21143093 0.008838,-0.0446724 0.0168901,-0.042109 0.0243532,-0.0384378 0.0312057,-0.0336857 0.085631,-0.0769902 0.0281137,-0.0357598 0.0149853,-0.0445524 -0.001707,-0.0460004"
       fill="#000000"
       stroke="none"
       fill-opacity="1"
       id="path2"
       style="fill:#0f000a;fill-opacity:1;stroke:#6a5fdb;stroke-width:0.1;stroke-dasharray:none;stroke-opacity:1" /><g
       style="fill:none"
       id="text"
       transform="matrix(0.00960357,0,0,0.00960357,0.01597029,0.3975716)"><path
         d="m 167.29,123.402 c 28.844,-11.833 53.862,2.366 53.862,29.287 C 221.152,206.529 156.988,237 81.639,237 28.954,237 11,224.871 11,206.234 c 0,-9.467 5.004,-18.342 27.078,-16.271 L 167.584,201.5 c 17.071,1.479 24.724,-6.508 24.724,-14.791 0,-8.579 -6.77,-14.496 -24.724,-16.862 L 62.214,156.83 c -22.37,-2.662 -30.022,-16.27 -30.022,-30.47 0,-10.946 4.12,-24.85 30.022,-33.133 L 177.003,56.545 c 13.833,-4.438 16.188,-10.354 16.188,-17.75 -0.295,-9.467 -9.124,-10.946 -16.483,-8.875 L 73.987,60.39 C 53.089,66.603 13.649,80.211 11.294,40.274 9.823,16.608 28.954,7.437 53.384,7.437 H 162.58 c 31.199,0 46.799,14.496 46.799,34.02 0,10.946 -7.653,21.892 -20.898,31.358 l -87.71,61.236 c -11.773,8.284 -5.887,19.229 7.653,13.609 z M 249.862,52.995 C 249.862,33.47 268.11,3 333.158,3 c 87.71,0.591 117.732,19.228 117.732,49.699 0,17.158 -6.181,22.779 -27.373,32.541 l -48.859,22.483 c -3.826,1.775 -5.592,4.141 -4.709,7.691 0.589,2.663 2.943,5.029 9.419,5.325 l 24.135,0.888 c 33.848,1.183 50.036,18.045 50.036,58.278 0,37.274 -38.557,56.799 -94.186,56.799 -65.93,-0.592 -120.381,-10.65 -120.381,-61.237 0,-28.695 9.713,-48.515 43.855,-51.178 l 32.376,-2.662 c 6.77,-0.592 9.125,-3.846 9.125,-7.692 0,-3.846 -2.944,-7.1 -7.653,-8.283 C 267.522,93.227 249.862,79.323 249.862,52.995 Z m 119.498,81.648 c -16.188,-11.241 -25.607,-12.129 -42.678,0 l -58.572,42.008 c -8.535,6.212 -7.652,17.454 5.004,17.454 l 152.758,-0.888 c 11.773,0 13.245,-9.762 4.415,-15.975 z M 331.392,95.298 c 6.181,13.608 19.131,13.608 30.61,5.325 l 39.146,-27.808 c 8.83,-6.212 9.713,-13.904 -1.177,-19.229 L 328.154,18.679 C 309.905,9.804 295.483,17.791 303.136,34.062 Z M 569.018,3 c 55.922,0 107.43,37.866 107.43,63.899 0,21.595 -28.255,37.274 -51.213,10.353 L 581.968,26.37 C 555.184,-4.988 503.676,43.824 544.883,65.715 l 16.188,8.579 c 24.724,13.312 16.188,39.345 -4.71,45.262 l -52.979,14.791 c -12.362,3.55 -11.773,14.2 -0.294,21.3 l 95.068,57.982 c 13.54,8.283 20.898,-0.591 18.543,-13.904 l -5.003,-28.103 c -2.944,-16.863 -2.944,-42.6 21.78,-45.262 30.022,-3.254 38.852,15.975 38.852,36.683 0,38.457 -33.26,73.661 -89.771,73.661 -67.696,0 -115.083,-50.587 -115.083,-120.994 C 467.474,52.403 499.556,3 569.018,3 Z m 279.12,120.402 C 876.982,111.569 902,125.768 902,152.689 902,206.529 837.836,237 762.487,237 c -52.685,0 -70.639,-12.129 -70.639,-30.766 0,-9.467 5.003,-18.342 27.078,-16.271 L 848.432,201.5 c 17.071,1.479 24.724,-6.508 24.724,-14.791 0,-8.579 -6.77,-14.496 -24.724,-16.862 L 743.061,156.83 c -22.369,-2.662 -30.021,-16.27 -30.021,-30.47 0,-10.946 4.12,-24.85 30.021,-33.133 L 857.85,56.545 c 13.834,-4.438 16.189,-10.354 16.189,-17.75 -0.295,-9.467 -9.125,-10.946 -16.483,-8.875 L 754.835,60.39 C 733.937,66.603 694.497,80.211 692.142,40.274 690.67,16.608 709.802,7.437 734.231,7.437 h 109.197 c 31.199,0 46.799,14.496 46.799,34.02 0,10.946 -7.653,21.892 -20.898,31.358 l -87.71,61.236 c -11.774,8.284 -5.887,19.229 7.652,13.609 z"
         fill="#ff5053"
         stroke="#ff5053"
         stroke-width="4.5"
         stroke-miterlimit="2"
         stroke-linejoin="round"
         id="path256" /></g></g><metadata
     id="metadata4016"><rdf:RDF><cc:Work
         rdf:about=""><cc:license
           rdf:resource="http://creativecommons.org/publicdomain/zero/1.0/" /></cc:Work><cc:License
         rdf:about="http://creativecommons.org/publicdomain/zero/1.0/"><cc:permits
           rdf:resource="http://creativecommons.org/ns#Reproduction" /><cc:permits
           rdf:resource="http://creativecommons.org/ns#Distribution" /><cc:permits
           rdf:resource="http://creativecommons.org/ns#DerivativeWorks" /></cc:License></rdf:RDF></metadata></svg>
